<svg width="439" height="329" viewBox="0 0 439 329" fill="none" xmlns="http://www.w3.org/2000/svg">
<path d="M85.7102 47.9928C149.427 33.7822 161.151 79.4967 191.17 72.7458C238.752 62.1358 241.958 14.4748 294.682 2.70588C342.231 -7.89294 391.129 28.1453 398.747 62.3383C424.456 177.553 290.362 259.047 222.651 274.191C143.891 291.754 79.2631 236.87 51.956 203.217C23.8387 168.597 0.930876 66.8951 85.7102 47.9928Z" fill="#33B8FC"/>
<path opacity="0.9" d="M85.7102 47.9928C149.427 33.7822 161.151 79.4967 191.17 72.7458C238.752 62.1358 241.958 14.4748 294.682 2.70588C342.231 -7.89294 391.129 28.1453 398.747 62.3383C424.456 177.553 290.362 259.047 222.651 274.191C143.891 291.754 79.2631 236.87 51.956 203.217C23.8387 168.597 0.930876 66.8951 85.7102 47.9928Z" fill="#000A2E"/>
<path d="M220.513 328.816C340.996 328.816 438.666 323.114 438.666 316.08C438.666 309.046 340.996 303.343 220.513 303.343C100.03 303.343 2.35962 309.046 2.35962 316.08C2.35962 323.114 100.03 328.816 220.513 328.816Z" fill="#0A2F60"/>
<path d="M337.652 302.027L312.313 245.849H253.075L262.143 298.426C262.25 299.04 262.235 299.668 262.099 300.275C261.962 300.883 261.708 301.457 261.349 301.966C260.991 302.475 260.536 302.908 260.01 303.241C259.484 303.574 258.898 303.8 258.284 303.906C258.032 303.951 257.776 303.974 257.519 303.973H231.54C230.871 303.973 230.23 304.239 229.757 304.712C229.285 305.184 229.019 305.825 229.019 306.494V309.284C229.019 309.952 229.285 310.594 229.757 311.066C230.23 311.539 230.871 311.804 231.54 311.804H335.818C336.543 311.804 337.238 311.516 337.751 311.004C338.264 310.491 338.552 309.795 338.552 309.07V306.167C338.544 304.739 338.238 303.329 337.652 302.027ZM310.221 295.051H281.777C280.881 295.048 280.014 294.73 279.329 294.152C278.643 293.574 278.184 292.773 278.03 291.889L273.744 267.136C273.658 266.644 273.67 266.14 273.779 265.653C273.888 265.165 274.092 264.704 274.379 264.296C274.667 263.887 275.032 263.539 275.454 263.272C275.875 263.004 276.346 262.823 276.838 262.737C277.059 262.72 277.281 262.72 277.502 262.737H299.003C299.738 262.737 300.457 262.95 301.073 263.349C301.69 263.748 302.178 264.317 302.48 264.987L313.731 289.74C313.989 290.32 314.098 290.955 314.049 291.588C314 292.221 313.794 292.832 313.451 293.365C313.107 293.899 312.636 294.338 312.08 294.644C311.524 294.951 310.9 295.113 310.266 295.119L310.221 295.051Z" fill="#263238"/>
<path opacity="0.5" d="M337.652 302.027L312.313 245.849H253.075L262.143 298.426C262.25 299.04 262.235 299.668 262.099 300.275C261.962 300.883 261.708 301.457 261.349 301.966C260.991 302.475 260.536 302.908 260.01 303.241C259.484 303.574 258.898 303.8 258.284 303.906C258.032 303.951 257.776 303.974 257.519 303.973H231.54C230.871 303.973 230.23 304.239 229.757 304.712C229.285 305.184 229.019 305.825 229.019 306.494V309.284C229.019 309.952 229.285 310.594 229.757 311.066C230.23 311.539 230.871 311.804 231.54 311.804H335.818C336.543 311.804 337.238 311.516 337.751 311.004C338.264 310.491 338.552 309.795 338.552 309.07V306.167C338.544 304.739 338.238 303.329 337.652 302.027ZM310.221 295.051H281.777C280.881 295.048 280.014 294.73 279.329 294.152C278.643 293.574 278.184 292.773 278.03 291.889L273.744 267.136C273.658 266.644 273.67 266.14 273.779 265.653C273.888 265.165 274.092 264.704 274.379 264.296C274.667 263.887 275.032 263.539 275.454 263.272C275.875 263.004 276.346 262.823 276.838 262.737C277.059 262.72 277.281 262.72 277.502 262.737H299.003C299.738 262.737 300.457 262.95 301.073 263.349C301.69 263.748 302.178 264.317 302.48 264.987L313.731 289.74C313.989 290.32 314.098 290.955 314.049 291.588C314 292.221 313.794 292.832 313.451 293.365C313.107 293.899 312.636 294.338 312.08 294.644C311.524 294.951 310.9 295.113 310.266 295.119L310.221 295.051Z" fill="white"/>
<path opacity="0.2" d="M310.221 295.051H281.777C280.881 295.048 280.014 294.73 279.329 294.152C278.643 293.574 278.184 292.773 278.03 291.889L273.744 267.136C273.658 266.644 273.67 266.14 273.779 265.653C273.888 265.165 274.092 264.704 274.38 264.296C274.667 263.887 275.032 263.539 275.454 263.272C275.875 263.004 276.346 262.823 276.838 262.737C277.059 262.72 277.281 262.72 277.502 262.737H299.003C299.738 262.737 300.457 262.95 301.073 263.349C301.69 263.748 302.179 264.317 302.48 264.987L313.731 289.74C313.989 290.32 314.098 290.955 314.049 291.588C314 292.221 313.795 292.832 313.451 293.365C313.107 293.899 312.636 294.338 312.08 294.644C311.524 294.95 310.9 295.113 310.266 295.118L310.221 295.051Z" fill="white"/>
<path d="M280.843 262.613H277.468C276.968 262.612 276.472 262.709 276.009 262.9C275.546 263.09 275.126 263.37 274.772 263.723C274.417 264.076 274.136 264.496 273.944 264.958C273.753 265.42 273.654 265.916 273.654 266.416C273.65 266.635 273.669 266.854 273.71 267.069L277.997 291.822C278.15 292.705 278.61 293.506 279.295 294.084C279.98 294.663 280.847 294.981 281.744 294.984H285.119C284.221 294.984 283.351 294.666 282.663 294.088C281.976 293.51 281.515 292.707 281.361 291.822L277.074 267.069C276.904 266.074 277.136 265.052 277.718 264.228C278.3 263.403 279.185 262.843 280.18 262.67C280.399 262.633 280.621 262.614 280.843 262.613Z" fill="#263238"/>
<path d="M341.005 302.027L315.644 245.905H312.269L337.607 302.027C338.202 303.338 338.509 304.761 338.507 306.201V309.104C338.507 309.829 338.219 310.524 337.706 311.037C337.194 311.55 336.498 311.838 335.773 311.838H339.148C339.507 311.838 339.862 311.767 340.193 311.63C340.524 311.492 340.825 311.291 341.078 311.037C341.331 310.782 341.531 310.481 341.667 310.149C341.803 309.818 341.873 309.462 341.871 309.104V306.201C341.884 304.764 341.589 303.34 341.005 302.027Z" fill="#263238"/>
<path opacity="0.2" d="M312.291 245.849H253.052L255.382 259.26H318.356L312.291 245.849Z" fill="black"/>
<path d="M397.262 251.744H144.555C143.463 251.765 142.378 251.571 141.361 251.172C140.344 250.773 139.416 250.178 138.629 249.421C137.843 248.663 137.213 247.758 136.776 246.757C136.339 245.756 136.104 244.679 136.083 243.587C136.06 243.212 136.06 242.837 136.083 242.462L152.094 59.8967C152.349 57.3906 153.513 55.0649 155.367 53.3587C157.22 51.6526 159.634 50.6843 162.153 50.6368H414.87C417.077 50.5977 419.208 51.436 420.797 52.9677C422.386 54.4993 423.301 56.599 423.343 58.8053C423.366 59.18 423.366 59.5558 423.343 59.9305L407.287 242.496C407.037 244.997 405.878 247.319 404.031 249.024C402.183 250.728 399.775 251.696 397.262 251.744Z" fill="#263238"/>
<path opacity="0.3" d="M397.262 251.744H144.555C143.463 251.765 142.378 251.571 141.361 251.172C140.344 250.773 139.416 250.178 138.629 249.421C137.843 248.663 137.213 247.758 136.776 246.757C136.339 245.756 136.104 244.679 136.083 243.587C136.06 243.212 136.06 242.837 136.083 242.462L152.094 59.8967C152.349 57.3906 153.513 55.0649 155.367 53.3587C157.22 51.6526 159.634 50.6843 162.153 50.6368H414.87C417.077 50.5977 419.208 51.436 420.797 52.9677C422.386 54.4993 423.301 56.599 423.343 58.8053C423.366 59.18 423.366 59.5558 423.343 59.9305L407.287 242.496C407.037 244.997 405.878 247.319 404.031 249.024C402.183 250.728 399.775 251.696 397.262 251.744Z" fill="white"/>
<path d="M137.849 222.761L136.128 242.496C135.881 244.689 136.515 246.89 137.891 248.616C139.266 250.342 141.271 251.451 143.464 251.699C143.838 251.724 144.214 251.724 144.589 251.699H397.261C399.78 251.656 402.195 250.689 404.048 248.982C405.9 247.275 407.061 244.946 407.309 242.44L409.042 222.705L137.849 222.761Z" fill="#33B8FC"/>
<path opacity="0.7" d="M137.849 222.761L136.128 242.496C135.881 244.689 136.515 246.89 137.891 248.616C139.266 250.342 141.271 251.451 143.464 251.699C143.838 251.724 144.214 251.724 144.589 251.699H397.261C399.78 251.656 402.195 250.689 404.048 248.982C405.9 247.275 407.061 244.946 407.309 242.44L409.042 222.705L137.849 222.761Z" fill="white"/>
<path d="M400.119 217.169H147.739C147.146 217.182 146.556 217.078 146.004 216.863C145.451 216.648 144.947 216.325 144.519 215.915C144.091 215.504 143.749 215.012 143.512 214.469C143.275 213.925 143.148 213.34 143.137 212.747C143.126 212.552 143.126 212.357 143.137 212.162L156.38 61.2356C156.529 59.8837 157.163 58.6317 158.164 57.7112C159.166 56.7907 160.466 56.264 161.826 56.2287H414.206C414.799 56.2168 415.388 56.3221 415.94 56.5388C416.492 56.7554 416.996 57.0789 417.423 57.4909C417.849 57.9029 418.19 58.3951 418.426 58.9392C418.662 59.4834 418.788 60.0688 418.797 60.6617C418.813 60.8526 418.813 61.0447 418.797 61.2356L405.576 212.162C405.427 213.516 404.791 214.769 403.788 215.69C402.784 216.611 401.481 217.136 400.119 217.169Z" fill="#33B8FC"/>
<path opacity="0.8" d="M400.119 217.169H147.739C147.146 217.182 146.556 217.078 146.004 216.863C145.451 216.648 144.947 216.325 144.519 215.915C144.091 215.504 143.749 215.012 143.512 214.469C143.275 213.925 143.148 213.34 143.137 212.747C143.126 212.552 143.126 212.357 143.137 212.162L156.38 61.2356C156.529 59.8837 157.163 58.6317 158.164 57.7112C159.166 56.7907 160.466 56.264 161.826 56.2287H414.206C414.799 56.2168 415.388 56.3221 415.94 56.5388C416.492 56.7554 416.996 57.0789 417.423 57.4909C417.849 57.9029 418.19 58.3951 418.426 58.9392C418.662 59.4834 418.788 60.0688 418.797 60.6617C418.813 60.8526 418.813 61.0447 418.797 61.2356L405.576 212.162C405.427 213.516 404.791 214.769 403.788 215.69C402.784 216.611 401.481 217.136 400.119 217.169Z" fill="#33B8FC"/>
<path opacity="0.8" d="M400.119 217.169H147.739C147.146 217.182 146.556 217.078 146.004 216.863C145.451 216.648 144.947 216.325 144.519 215.915C144.091 215.504 143.749 215.012 143.512 214.469C143.275 213.925 143.148 213.34 143.137 212.747C143.126 212.552 143.126 212.357 143.137 212.162L156.38 61.2356C156.529 59.8837 157.163 58.6317 158.164 57.7112C159.166 56.7907 160.466 56.264 161.826 56.2287H414.206C414.799 56.2168 415.388 56.3221 415.94 56.5388C416.492 56.7554 416.996 57.0789 417.423 57.4909C417.849 57.9029 418.19 58.3951 418.426 58.9392C418.662 59.4834 418.788 60.0688 418.797 60.6617C418.813 60.8526 418.813 61.0447 418.797 61.2356L405.576 212.162C405.427 213.516 404.791 214.769 403.788 215.69C402.784 216.611 401.481 217.136 400.119 217.169Z" fill="white"/>
<g opacity="0.5">
<path d="M218.466 217.18H195.412L229.627 56.2288H252.67L218.466 217.18Z" fill="white"/>
<path d="M233.047 217.18H227.151L261.367 56.2288H267.263L233.047 217.18Z" fill="white"/>
<path d="M318.895 217.18H315.025L349.24 56.2288H353.1L318.895 217.18Z" fill="white"/>
<path d="M333.489 217.18H327.593L361.797 56.2288H367.693L333.489 217.18Z" fill="white"/>
</g>
<path d="M420.451 50.6594H414.825C415.917 50.6385 417.003 50.833 418.019 51.2317C419.036 51.6303 419.964 52.2254 420.751 52.9829C421.538 53.7404 422.168 54.6455 422.605 55.6465C423.042 56.6475 423.277 57.7247 423.298 58.8167C423.321 59.1913 423.321 59.5671 423.298 59.9418L407.287 242.496C407.039 245.003 405.878 247.331 404.026 249.038C402.173 250.746 399.758 251.713 397.239 251.756H402.865C405.383 251.71 407.797 250.742 409.649 249.036C411.501 247.329 412.662 245.002 412.912 242.496L428.878 59.8968C428.999 58.8107 428.904 57.7115 428.599 56.6621C428.294 55.6127 427.786 54.6336 427.102 53.781C426.419 52.9283 425.574 52.2186 424.616 51.6927C423.658 51.1667 422.606 50.8347 421.52 50.7157C421.166 50.6686 420.808 50.6498 420.451 50.6594Z" fill="#263238"/>
<path opacity="0.6" d="M420.451 50.6594H414.825C415.917 50.6385 417.003 50.833 418.019 51.2317C419.036 51.6303 419.964 52.2254 420.751 52.9829C421.538 53.7404 422.168 54.6455 422.605 55.6465C423.042 56.6475 423.277 57.7247 423.298 58.8167C423.321 59.1913 423.321 59.5671 423.298 59.9418L407.287 242.496C407.039 245.003 405.878 247.331 404.026 249.038C402.173 250.746 399.758 251.713 397.239 251.756H402.865C405.383 251.71 407.797 250.742 409.649 249.036C411.501 247.329 412.662 245.002 412.912 242.496L428.878 59.8968C428.999 58.8107 428.904 57.7115 428.599 56.6621C428.294 55.6127 427.786 54.6336 427.102 53.781C426.419 52.9283 425.574 52.2186 424.616 51.6927C423.658 51.1667 422.606 50.8347 421.52 50.7157C421.166 50.6686 420.808 50.6498 420.451 50.6594Z" fill="white"/>
<path d="M286.492 160.822C285.968 165.949 283.583 170.707 279.79 174.196C275.996 177.685 271.055 179.664 265.902 179.758C263.479 179.798 261.075 179.322 258.85 178.361C256.625 177.4 254.63 175.977 252.998 174.186C251.365 172.395 250.132 170.277 249.382 167.973C248.631 165.668 248.379 163.231 248.642 160.822C249.167 155.694 251.551 150.937 255.345 147.448C259.139 143.959 264.079 141.98 269.232 141.886L270.088 132.209C254.279 132.209 240.35 145.014 238.966 160.822C237.582 176.63 249.272 189.434 265.081 189.434C280.889 189.434 294.773 176.619 296.168 160.822H286.492Z" fill="#33B8FC"/>
<path d="M299.566 156.659C300.95 140.851 289.26 128.047 273.452 128.047L272.608 137.723C275.033 137.678 277.44 138.15 279.669 139.109C281.898 140.068 283.896 141.49 285.531 143.282C287.167 145.074 288.401 147.194 289.153 149.501C289.905 151.807 290.156 154.248 289.89 156.659H299.566Z" fill="#33B8FC"/>
<path opacity="0.3" d="M299.566 156.659C300.95 140.851 289.26 128.047 273.452 128.047L272.608 137.723C275.033 137.678 277.44 138.15 279.669 139.109C281.898 140.068 283.896 141.49 285.531 143.282C287.167 145.074 288.401 147.194 289.153 149.501C289.905 151.807 290.156 154.248 289.89 156.659H299.566Z" fill="black"/>
<path d="M275.859 160.822C275.62 163.156 274.535 165.321 272.808 166.909C271.081 168.497 268.832 169.397 266.487 169.44C265.382 169.461 264.286 169.247 263.271 168.811C262.256 168.375 261.345 167.727 260.6 166.912C259.855 166.096 259.292 165.131 258.949 164.081C258.606 163.031 258.491 161.92 258.611 160.822C258.84 158.478 259.922 156.3 261.652 154.702C263.383 153.105 265.64 152.199 267.994 152.158L268.377 147.748C264.835 147.829 261.445 149.204 258.846 151.612C256.247 154.02 254.618 157.296 254.268 160.822C254.087 162.48 254.261 164.158 254.779 165.744C255.298 167.329 256.147 168.786 257.273 170.018C258.398 171.249 259.772 172.227 261.305 172.886C262.837 173.545 264.493 173.87 266.16 173.84C269.694 173.762 273.076 172.396 275.673 169.998C278.269 167.601 279.9 164.337 280.258 160.822H275.859Z" fill="#33B8FC"/>
<path opacity="0.3" d="M275.859 160.822C275.62 163.156 274.535 165.321 272.808 166.909C271.081 168.497 268.832 169.397 266.487 169.44C265.382 169.461 264.286 169.247 263.271 168.811C262.256 168.375 261.345 167.727 260.6 166.912C259.855 166.096 259.292 165.131 258.949 164.081C258.606 163.031 258.491 161.92 258.611 160.822C258.84 158.478 259.922 156.3 261.652 154.702C263.383 153.105 265.64 152.199 267.994 152.158L268.377 147.748C264.835 147.829 261.445 149.204 258.846 151.612C256.247 154.02 254.618 157.296 254.268 160.822C254.087 162.48 254.261 164.158 254.779 165.744C255.298 167.329 256.147 168.786 257.273 170.018C258.398 171.249 259.772 172.227 261.305 172.886C262.837 173.545 264.493 173.87 266.16 173.84C269.694 173.762 273.076 172.396 275.673 169.998C278.269 167.601 279.9 164.337 280.258 160.822H275.859Z" fill="black"/>
<path d="M281.811 158.909C281.992 157.251 281.817 155.573 281.299 153.987C280.781 152.402 279.931 150.944 278.806 149.713C277.681 148.481 276.306 147.503 274.774 146.844C273.241 146.186 271.586 145.861 269.918 145.891L269.536 150.29C270.64 150.27 271.736 150.484 272.752 150.92C273.767 151.356 274.677 152.004 275.422 152.819C276.167 153.635 276.73 154.599 277.073 155.65C277.416 156.7 277.532 157.811 277.412 158.909H281.811Z" fill="#33B8FC"/>
<path d="M337.528 175.719H314.8C314.602 175.721 314.405 175.682 314.222 175.603C314.04 175.524 313.877 175.407 313.743 175.261C313.609 175.114 313.508 174.941 313.445 174.752C313.383 174.563 313.362 174.363 313.383 174.166C313.426 173.746 313.622 173.356 313.933 173.07C314.244 172.784 314.648 172.622 315.07 172.613H337.843C338.041 172.61 338.238 172.65 338.42 172.729C338.601 172.808 338.764 172.925 338.897 173.072C339.03 173.218 339.131 173.392 339.191 173.581C339.252 173.769 339.272 173.969 339.25 174.166C339.208 174.593 339.008 174.988 338.689 175.275C338.371 175.563 337.957 175.721 337.528 175.719Z" fill="#263238"/>
<path d="M331.306 181.828H314.26C314.062 181.831 313.865 181.792 313.684 181.713C313.502 181.634 313.339 181.517 313.206 181.37C313.073 181.223 312.973 181.049 312.912 180.861C312.851 180.672 312.831 180.472 312.854 180.275C312.895 179.855 313.09 179.464 313.401 179.177C313.713 178.891 314.118 178.729 314.541 178.723H331.576C331.779 178.713 331.982 178.748 332.17 178.825C332.358 178.901 332.527 179.018 332.665 179.167C332.804 179.316 332.908 179.494 332.97 179.687C333.033 179.88 333.052 180.085 333.027 180.287C332.983 180.711 332.782 181.104 332.464 181.389C332.146 181.674 331.733 181.831 331.306 181.828Z" fill="#263238"/>
<path d="M198.809 178.284H221.571C221.992 178.278 222.397 178.118 222.708 177.834C223.019 177.549 223.215 177.161 223.259 176.742C223.283 176.545 223.264 176.345 223.204 176.155C223.144 175.966 223.044 175.791 222.911 175.644C222.777 175.497 222.614 175.38 222.431 175.301C222.248 175.223 222.051 175.185 221.852 175.19H199.136C198.713 175.196 198.307 175.358 197.996 175.644C197.684 175.93 197.489 176.321 197.448 176.742C197.426 176.935 197.445 177.13 197.503 177.315C197.561 177.5 197.657 177.671 197.786 177.816C197.914 177.961 198.071 178.078 198.248 178.159C198.424 178.239 198.616 178.282 198.809 178.284Z" fill="#263238"/>
<path d="M203.985 184.393H221.031C221.453 184.385 221.857 184.222 222.168 183.936C222.479 183.65 222.675 183.261 222.718 182.841C222.741 182.643 222.721 182.442 222.66 182.253C222.598 182.063 222.497 181.889 222.363 181.742C222.228 181.595 222.064 181.478 221.881 181.4C221.698 181.322 221.5 181.283 221.301 181.288H204.266C203.842 181.294 203.435 181.455 203.122 181.741C202.809 182.028 202.611 182.419 202.567 182.841C202.547 183.038 202.568 183.238 202.63 183.427C202.692 183.615 202.793 183.789 202.927 183.935C203.061 184.082 203.225 184.199 203.407 184.278C203.589 184.357 203.786 184.396 203.985 184.393Z" fill="#263238"/>
<path d="M309.118 175.055H301.366L283.78 155.792H278.121L278.267 154.161H284.601L302.176 173.435H309.264L309.118 175.055Z" fill="#263238"/>
<path d="M226.038 178.441H233.79L251.376 159.168H257.035L256.9 157.548H250.554L232.98 176.81H225.891L226.038 178.441Z" fill="#263238"/>
<path opacity="0.1" d="M216.609 79.6203H175.44L176.127 71.7668H217.295L216.609 79.6203Z" fill="black"/>
<path opacity="0.1" d="M215.237 95.3159H174.068L174.754 87.4624H215.923L215.237 95.3159Z" fill="black"/>
<path opacity="0.1" d="M213.864 111.012H172.695L173.381 103.158H214.55L213.864 111.012Z" fill="black"/>
<path opacity="0.2" d="M215.923 87.4626H174.754L175.44 79.6204H216.609L215.923 87.4626Z" fill="white"/>
<path opacity="0.2" d="M214.55 103.158H173.382L174.068 95.3159H215.237L214.55 103.158Z" fill="white"/>
<path d="M198.753 110.112C193.24 110.112 192.317 100.841 191.35 90.9843C190.45 81.9832 189.516 72.5657 184.689 72.5657C180.74 72.5657 176.217 85.8649 174.81 90.9843L174.011 90.838C174.919 87.6349 176.001 84.4836 177.252 81.3981C179.896 74.9848 182.427 71.7332 184.768 71.7332C190.281 71.7332 191.203 81.0156 192.171 90.8605C193.071 99.8617 194.005 109.279 198.832 109.279C202.68 109.279 207.068 96.6437 208.598 91.2768C208.629 91.1708 208.698 91.0795 208.791 91.0196C208.884 90.9598 208.995 90.9352 209.104 90.9505C209.157 90.9609 209.206 90.982 209.25 91.0125C209.293 91.043 209.33 91.0823 209.357 91.1279C209.385 91.1734 209.403 91.2242 209.409 91.277C209.416 91.3297 209.412 91.3833 209.397 91.4343C208.511 94.4868 207.467 97.4912 206.269 100.435C203.636 106.86 201.093 110.112 198.753 110.112Z" fill="#33B8FC"/>
<path d="M179.761 105.836C175.575 105.836 174.135 92.6267 173.989 91.119L174.821 90.9727C175.204 94.877 176.869 105.003 179.828 105.003C182.787 105.003 184.509 98.9612 186.107 93.1217C187.884 86.6634 189.561 80.5652 193.262 80.5652C196.379 80.5652 196.885 85.6171 197.414 90.9727C197.887 95.7546 198.382 100.694 200.79 100.694C203.197 100.694 204.57 95.7546 205.886 90.9727C207.349 85.6171 208.733 80.5652 211.85 80.5652C213.222 80.5652 214.303 82.3092 215.146 85.8871C215.496 87.4286 215.767 88.9871 215.956 90.5564C215.967 90.669 215.934 90.7812 215.865 90.8708C215.797 90.9604 215.697 91.0209 215.585 91.0402C215.534 91.0516 215.481 91.052 215.429 91.0414C215.378 91.0307 215.329 91.0092 215.287 90.9784C215.244 90.9476 215.209 90.908 215.183 90.8624C215.156 90.8169 215.14 90.7662 215.135 90.714C214.708 86.956 213.481 81.3978 211.76 81.3978C209.329 81.3978 207.979 86.3372 206.663 91.119C205.2 96.4747 203.805 101.527 200.688 101.527C197.572 101.527 197.077 96.4747 196.548 91.119C196.064 86.3372 195.58 81.3978 193.172 81.3978C190.146 81.3978 188.492 87.4398 186.894 93.2793C185.139 99.7376 183.462 105.836 179.761 105.836Z" fill="#33B8FC"/>
<g opacity="0.5">
<path d="M179.761 105.836C175.575 105.836 174.135 92.6267 173.989 91.119L174.821 90.9727C175.204 94.877 176.869 105.003 179.828 105.003C182.787 105.003 184.509 98.9612 186.107 93.1217C187.884 86.6634 189.561 80.5652 193.262 80.5652C196.379 80.5652 196.885 85.6171 197.414 90.9727C197.887 95.7546 198.382 100.694 200.79 100.694C203.197 100.694 204.57 95.7546 205.886 90.9727C207.349 85.6171 208.733 80.5652 211.85 80.5652C213.222 80.5652 214.303 82.3092 215.146 85.8871C215.496 87.4286 215.767 88.9871 215.956 90.5564C215.967 90.669 215.934 90.7812 215.865 90.8708C215.797 90.9604 215.697 91.0209 215.585 91.0402C215.534 91.0516 215.481 91.052 215.429 91.0414C215.378 91.0307 215.329 91.0092 215.287 90.9784C215.244 90.9476 215.209 90.908 215.183 90.8624C215.156 90.8169 215.14 90.7662 215.135 90.714C214.708 86.956 213.481 81.3978 211.76 81.3978C209.329 81.3978 207.979 86.3372 206.663 91.119C205.2 96.4747 203.805 101.527 200.688 101.527C197.572 101.527 197.077 96.4747 196.548 91.119C196.064 86.3372 195.58 81.3978 193.172 81.3978C190.146 81.3978 188.492 87.4398 186.894 93.2793C185.139 99.7376 183.462 105.836 179.761 105.836Z" fill="black"/>
</g>
<path d="M214.134 111.8H172.132L175.632 72.2734C175.643 72.1489 175.699 72.033 175.791 71.9479C175.882 71.8627 176.002 71.8143 176.127 71.8121C176.186 71.8098 176.245 71.8206 176.299 71.8437C176.354 71.8667 176.403 71.9015 176.442 71.9455C176.482 71.9894 176.512 72.0416 176.529 72.0983C176.546 72.1549 176.551 72.2147 176.543 72.2734L173.167 110.933H214.213C214.271 110.933 214.329 110.945 214.383 110.969C214.437 110.992 214.485 111.027 214.524 111.071C214.563 111.114 214.593 111.165 214.611 111.221C214.629 111.277 214.635 111.336 214.629 111.394C214.606 111.509 214.544 111.611 214.453 111.685C214.363 111.759 214.25 111.799 214.134 111.8Z" fill="#263238"/>
<path d="M308.668 73.4771H242.285L241.16 86.5399L241.059 87.665L240.012 99.6478L239.922 100.773L238.797 113.836H318.243L319.368 100.773L319.458 99.6478L320.516 87.665L320.606 86.5399L321.731 73.4771H308.668ZM295.504 74.6022H307.487L306.441 86.5849H294.458L295.504 74.6022ZM305.293 99.6478H293.321L294.368 87.665H306.351L305.293 99.6478ZM255.179 87.665H267.162L266.116 99.6478H254.133L255.179 87.665ZM268.242 87.665H280.225L279.178 99.6478H267.196L268.242 87.665ZM281.305 87.665H293.288L292.241 99.6478H280.259L281.305 87.665ZM282.43 74.6022H294.402L293.355 86.5849H281.406L282.43 74.6022ZM269.367 74.6022H281.35L280.292 86.5849H268.343L269.367 74.6022ZM256.304 74.6022H268.287L267.241 86.5849H255.28L256.304 74.6022ZM243.241 74.6022H255.224L254.178 86.5849H242.218L243.241 74.6022ZM242.116 87.665H254.088L253.041 99.6478H241.07L242.116 87.665ZM251.905 112.711H239.934L240.98 100.728H252.963L251.905 112.711ZM264.957 112.711H252.996L254.043 100.728H266.026L264.957 112.711ZM278.019 112.711H266.059L267.106 100.728H279.077L278.019 112.711ZM291.082 112.711H279.111L280.168 100.728H292.14L291.082 112.711ZM304.145 112.711H292.174L293.22 100.728H305.203L304.145 112.711ZM317.208 112.711H305.237L306.283 100.728H318.266L317.208 112.711ZM318.333 99.6478H306.384L307.431 87.665H319.402L318.333 99.6478ZM307.498 86.5849L308.545 74.6022H320.527L319.526 86.5399L307.498 86.5849Z" fill="#33B8FC"/>
<path d="M255.292 113.206H246.797L248.147 97.8252H256.631L255.292 113.206Z" fill="#33B8FC"/>
<path d="M268.355 113.206H259.86L261.57 93.6169H270.065L268.355 113.206Z" fill="#263238"/>
<path d="M282.047 113.206H273.564L275.274 93.6169H283.769L282.047 113.206Z" fill="#33B8FC"/>
<path d="M294.469 113.206H285.974L288.641 82.8269H297.136L294.469 113.206Z" fill="#263238"/>
<path d="M307.532 113.206H299.037L301.895 80.554H310.39L307.532 113.206Z" fill="#33B8FC"/>
<path opacity="0.2" d="M255.292 113.206H246.797L248.147 97.8252H256.631L255.292 113.206Z" fill="black"/>
<path opacity="0.2" d="M282.047 113.206H273.564L275.274 93.6169H283.769L282.047 113.206Z" fill="black"/>
<path opacity="0.2" d="M307.532 113.206H299.037L301.895 80.554H310.39L307.532 113.206Z" fill="black"/>
<path d="M372.7 217.18C376.784 185.417 380.823 151.326 380.823 151.326L348.194 151.123C348.194 151.123 345.179 186.677 342.805 217.18H372.7Z" fill="#263238"/>
<path opacity="0.6" d="M373.848 217.18C375.288 205.366 376.717 193.226 377.954 182.627C378.247 178.205 378.517 173.907 378.787 169.834C376.3 164.085 371.429 160.912 368.019 174.188C364.626 188.302 364.483 203.003 367.603 217.18H373.848Z" fill="black"/>
<path d="M399.928 217.18C398.431 185.957 396.811 150.662 396.811 150.662H365.307C365.307 150.662 368.041 187.094 370.933 217.18H399.928Z" fill="#263238"/>
<path d="M345.112 76.3687C342.861 81.5218 340.352 86.9 337.686 91.8731C336.358 94.3934 334.929 96.8125 333.444 99.074C332.141 101.124 330.6 103.012 328.853 104.7C328.554 104.978 328.234 105.234 327.897 105.465C327.747 105.546 327.604 105.64 327.469 105.746C327.469 105.746 327.627 105.814 327.469 105.836C327.241 105.838 327.015 105.792 326.806 105.701C325.895 105.319 325.049 104.799 324.297 104.16C323.307 103.359 322.372 102.494 321.495 101.572C317.683 97.3514 314.211 92.8368 311.11 88.0701L305.327 90.7592C307.287 96.8462 310.11 102.621 313.709 107.906C314.704 109.334 315.806 110.685 317.006 111.946C318.393 113.419 319.989 114.681 321.742 115.692C322.857 116.323 324.059 116.785 325.309 117.065C326.789 117.39 328.32 117.413 329.81 117.132C332.189 116.603 334.414 115.533 336.313 114.005C339.076 111.74 341.52 109.114 343.581 106.196C345.495 103.612 347.268 100.926 348.892 98.1514C350.456 95.406 351.93 92.6494 353.258 89.8253C354.585 87.0012 355.868 84.1996 357.049 81.2068L345.112 76.3687Z" fill="#CE7A63"/>
<path d="M330 98.2641L344.436 109.032C344.436 109.032 344.987 108.424 345.899 107.366C346.574 106.59 347.429 105.566 348.43 104.351C354.056 97.5214 362.236 85.0549 362.303 78.9454C362.405 69.843 352.942 68.5041 342.343 77.8202C337.764 81.837 335.379 88.4978 333.05 92.6384C332.273 93.9998 331.632 95.1924 331.126 96.115C330.406 97.4652 330 98.2641 330 98.2641Z" fill="#33B8FC"/>
<path opacity="0.3" d="M362.393 80.0029C359.13 77.8427 356.768 83.3784 350.309 88.1377C347.44 90.2417 341.139 103.946 341.657 106.961L344.436 109.032C344.436 109.032 362.472 89.0716 362.393 80.0029Z" fill="black"/>
<path d="M306.935 92.9532L298.677 86.4162L307.183 80.948C307.183 80.948 313.934 88.3064 312.1 90.838L306.935 92.9532Z" fill="#CE7A63"/>
<path d="M330.001 96.8574L345.775 108.66L343.806 110.708L328.797 99.6253L330.001 96.8574Z" fill="#33B8FC"/>
<path opacity="0.2" d="M330.001 96.8574L345.775 108.66L343.806 110.708L328.797 99.6253L330.001 96.8574Z" fill="black"/>
<path d="M348.025 151.123H396.867C397.205 146.769 396.204 132.57 396.946 114.5C397.41 101.107 399.037 87.7808 401.807 74.6698C402.021 73.6797 402.246 72.7121 402.482 71.7219C402.482 71.7219 400.007 71.2156 396.462 70.6981C393.514 70.2705 389.813 69.8317 386.201 69.6517C379.287 69.2632 372.356 69.2632 365.442 69.6517C362.247 69.9555 359.13 70.4843 356.644 70.9569C353.471 71.5982 351.592 72.1495 351.592 72.1495C351.592 72.1495 339.564 99.7717 348.025 151.123Z" fill="#33B8FC"/>
<path d="M298.171 77.0216L305.068 74.7488L307.183 80.9483L298.677 86.4165L298.171 77.0216Z" fill="#CE7A63"/>
<path d="M407.995 83.0857C409.368 85.9098 410.471 88.5989 411.596 91.4005C412.721 94.2021 413.711 97.0262 414.634 99.929C415.575 102.886 416.359 105.891 416.985 108.93C417.695 112.231 418.027 115.602 417.975 118.978C417.909 121.119 417.483 123.233 416.715 125.233C416.187 126.555 415.425 127.771 414.465 128.823C413.378 129.993 412.039 130.901 410.549 131.478C408.185 132.303 405.632 132.421 403.202 131.816C401.414 131.403 399.683 130.772 398.049 129.937C395.202 128.489 392.52 126.739 390.049 124.716C388.845 123.76 387.698 122.758 386.595 121.712C385.493 120.665 384.424 119.641 383.344 118.46L387.428 113.566C392.016 116.366 396.875 118.696 401.931 120.519C402.944 120.841 403.989 121.056 405.047 121.16C405.925 121.239 406.465 120.992 406.229 120.958C406.078 120.979 405.936 121.037 405.813 121.127C405.7 121.194 405.711 121.183 405.756 121.003C405.899 120.262 405.952 119.506 405.914 118.753C405.801 116.352 405.423 113.971 404.789 111.653C404.17 109.121 403.36 106.534 402.46 103.957C400.693 98.8152 398.555 93.527 396.384 88.5876L407.995 83.0857Z" fill="#CE7A63"/>
<path d="M389.465 115.152L381.757 107.997L377.639 117.279C377.639 117.279 385.954 122.837 388.171 120.654L389.465 115.152Z" fill="#CE7A63"/>
<path d="M372.385 108.919L371.192 116.086L377.639 117.234L381.757 107.997L372.385 108.919Z" fill="#CE7A63"/>
<path opacity="0.3" d="M396.947 114.511C397.411 101.115 399.037 87.7845 401.807 74.6698C398.545 74.3885 392.964 74.6698 392.041 79.9805C391.04 85.6512 392.3 98.9728 396.947 114.511Z" fill="black"/>
<path d="M390.826 87.4062C392.817 93.6205 395.177 99.7108 397.892 105.645C398.477 106.984 399.017 108.165 399.467 109.133C400.243 110.82 400.738 111.844 400.738 111.844L419.011 102.528C419.011 102.528 418.808 101.763 418.448 100.48C418.178 99.5127 417.807 98.23 417.323 96.7898C414.634 88.1713 409.053 72.7681 403.101 71.688C394.235 70.079 387.574 76.5486 390.826 87.4062Z" fill="#33B8FC"/>
<path d="M374.241 76.515C386.291 76.1888 388.103 70.293 388.181 70.0342L388.26 69.7755L386.201 69.6517C379.287 69.2632 372.357 69.2632 365.442 69.6517L364.317 69.7755C363.812 70.1951 363.423 70.7369 363.187 71.3494C362.951 71.9619 362.875 72.6246 362.967 73.2746C363.496 75.3336 366.342 76.02 368.784 76.3125L374.241 76.515Z" fill="white"/>
<path d="M418.583 99.2429L398.612 109.459L400.873 112.227L419.438 102.585L418.583 99.2429Z" fill="#33B8FC"/>
<path opacity="0.2" d="M418.583 99.2429L398.612 109.459L400.873 112.227L419.438 102.585L418.583 99.2429Z" fill="black"/>
<path d="M377.223 82.7481L371.282 77.3812L364.07 82.3993C364.07 82.3993 356.554 75.2772 362.134 70.0228C363.26 69.8765 364.317 69.7415 365.442 69.629C372.356 69.2405 379.287 69.2405 386.201 69.629C387.619 69.6965 389.036 69.8203 390.432 69.9553C390.015 71.9918 387.889 78.6189 377.223 82.7481Z" fill="#33B8FC"/>
<path opacity="0.2" d="M377.223 82.7481L371.282 77.3812L364.07 82.3993C364.07 82.3993 356.554 75.2772 362.134 70.0228C363.26 69.8765 364.317 69.7415 365.442 69.629C372.356 69.2405 379.287 69.2405 386.201 69.629C387.619 69.6965 389.036 69.8203 390.432 69.9553C390.015 71.9918 387.889 78.6189 377.223 82.7481Z" fill="black"/>
<path d="M373.847 75.2997C385.459 75.086 387 69.674 387 69.674C382.5 65.1735 384.21 53.0332 385.751 46.3386L380.193 50.9517L372.632 57.23C372.858 58.239 373.019 59.2611 373.116 60.2904C373.521 64.3859 372.464 68.1663 366.433 69.5503C366.433 69.5503 359.266 74.2871 369.898 75.176L373.847 75.2997Z" fill="#CE7A63"/>
<path opacity="0.2" d="M372.632 57.2639C372.858 58.2729 373.019 59.295 373.116 60.3243C375.94 59.7504 379.709 56.7463 380.103 53.866C380.241 52.9122 380.271 51.9461 380.193 50.9856L372.632 57.2639Z" fill="black"/>
<path d="M388.047 36.7524C386.111 45.6297 385.436 50.9179 380.171 54.9684C378.48 56.3079 376.456 57.1591 374.316 57.4298C372.176 57.7005 370.003 57.3803 368.033 56.5039C366.062 55.6276 364.369 54.2285 363.137 52.4584C361.905 50.6883 361.181 48.6146 361.043 46.4623C360.357 38.1925 363.631 25.0847 372.97 22.5531C374.98 21.9466 377.115 21.8807 379.159 22.362C381.203 22.8432 383.084 23.8546 384.613 25.2943C386.142 26.7341 387.264 28.5512 387.867 30.5628C388.469 32.5743 388.532 34.7092 388.047 36.7524Z" fill="#CE7A63"/>
<path d="M374.039 37.6412C373.926 38.3613 373.442 38.9126 372.97 38.8564C372.497 38.8001 372.193 38.1588 372.306 37.4274C372.418 36.6961 372.891 36.156 373.375 36.2123C373.859 36.2685 374.151 36.9099 374.039 37.6412Z" fill="#263238"/>
<path d="M365.769 36.6512C365.656 37.3825 365.172 37.9226 364.644 37.8663C364.115 37.8101 363.867 37.18 363.98 36.4487C364.092 35.7173 364.565 35.1773 365.049 35.2335C365.532 35.2898 365.881 35.9198 365.769 36.6512Z" fill="#263238"/>
<path d="M368.334 37.3264C367.102 39.4589 365.589 41.4155 363.834 43.1434C364.959 44.4936 367.209 44.2123 367.209 44.2123L368.334 37.3264Z" fill="#BA4D3C"/>
<path d="M376.998 35.2787C377.073 35.2829 377.148 35.2632 377.211 35.2225C377.31 35.1657 377.382 35.0731 377.414 34.964C377.445 34.8549 377.433 34.7378 377.38 34.6374C377.068 34.0242 376.608 33.4979 376.043 33.1053C375.477 32.7127 374.824 32.466 374.14 32.3871C374.025 32.384 373.914 32.4259 373.83 32.5036C373.746 32.5814 373.696 32.689 373.69 32.8034C373.687 32.8605 373.695 32.9176 373.715 32.9714C373.734 33.0251 373.764 33.0744 373.803 33.1164C373.842 33.1583 373.889 33.1921 373.941 33.2156C373.993 33.2392 374.049 33.2521 374.106 33.2535C374.634 33.3247 375.138 33.5198 375.576 33.8229C376.014 34.126 376.374 34.5285 376.626 34.9974C376.654 35.0752 376.704 35.1432 376.77 35.1931C376.836 35.243 376.915 35.2728 376.998 35.2787Z" fill="#263238"/>
<path d="M362.652 33.3996C362.723 33.3983 362.792 33.3803 362.855 33.3471C362.918 33.3138 362.971 33.2663 363.012 33.2083C363.311 32.7439 363.711 32.3536 364.183 32.0671C364.654 31.7805 365.185 31.6051 365.735 31.5544C365.793 31.5559 365.851 31.5456 365.905 31.5241C365.959 31.5026 366.008 31.4703 366.049 31.4293C366.09 31.3882 366.122 31.3392 366.144 31.2853C366.165 31.2314 366.175 31.1736 366.174 31.1155C366.171 31.0011 366.123 30.8924 366.041 30.8125C365.959 30.7326 365.849 30.688 365.735 30.688C365.043 30.739 364.372 30.9494 363.775 31.3027C363.178 31.656 362.67 32.1426 362.292 32.7245C362.26 32.771 362.238 32.8233 362.226 32.8785C362.214 32.9337 362.214 32.9907 362.224 33.0461C362.235 33.1015 362.256 33.1543 362.287 33.2015C362.318 33.2486 362.358 33.2892 362.405 33.3208C362.476 33.3735 362.563 33.4012 362.652 33.3996Z" fill="#263238"/>
<path d="M364.801 46.6201C364.801 46.6201 367.513 45.9225 375.153 45.72C374.32 48.0378 372.7 49.9618 368.784 50.0293C368.295 50.0871 367.799 50.043 367.328 49.8997C366.857 49.7565 366.42 49.5172 366.046 49.1969C365.672 48.8766 365.368 48.4823 365.154 48.0388C364.94 47.5953 364.82 47.1123 364.801 46.6201Z" fill="#263238"/>
<path d="M370.551 48.1726C369.046 48.1233 367.565 48.5527 366.32 49.399C367.057 49.8569 367.919 50.0733 368.784 50.0178C370.286 50.0726 371.765 49.6426 373.004 48.7914C372.271 48.3336 371.413 48.1172 370.551 48.1726Z" fill="#A02724"/>
<path d="M365.15 46.5525C365.23 46.8352 365.387 47.0901 365.604 47.2888C365.82 47.4874 366.088 47.622 366.376 47.6776C368.644 47.6163 370.902 47.3641 373.127 46.9238C373.481 46.8905 373.821 46.7704 374.118 46.5741C374.414 46.3778 374.657 46.1115 374.826 45.7986C371.586 45.7952 368.35 46.0472 365.15 46.5525Z" fill="white"/>
<path d="M382.972 30.1142C381.33 28.4265 380.857 26.3787 374.061 26.9863C367.265 27.5939 360.098 32.8258 360.233 26.9863C360.233 25.6361 361.426 27.2113 363.665 24.286C363.665 24.286 357.522 27.0651 359.446 23.1608C360.987 20.0104 362.731 24.8485 370.596 18.7728C378.46 12.697 388.812 18.1764 391.793 26.345C393.341 26.8442 394.655 27.885 395.497 29.2761C396.338 30.6672 396.649 32.3151 396.373 33.9172C395.675 39.1378 388.35 42.9858 387.597 49.3428C387.484 50.2429 388.609 51.7056 387.709 52.2232C387.192 52.5157 385.92 50.6255 385.92 50.6255C385.742 50.9814 385.613 51.3599 385.538 51.7506C385.358 52.5945 387.203 54.7773 385.616 55.7336C384.716 56.2737 384.322 54.6647 383.782 51.9307C383.554 50.7184 383.489 49.4809 383.591 48.2514C383.974 42.7608 381.341 45.2811 381.442 41.7931C381.51 39.3741 383.445 35.3236 384.626 33.0733C384.821 32.7207 384.868 32.3056 384.759 31.918C384.649 31.5305 384.391 31.2017 384.041 31.0031C383.637 30.7693 383.276 30.4688 382.972 30.1142Z" fill="#263238"/>
<path d="M390.095 46.0234C388.66 47.758 386.675 48.9491 384.469 49.3988C381.667 49.8714 381.093 47.2836 382.455 44.7745C383.737 42.5242 386.742 39.5539 389.206 40.2739C391.67 40.994 391.906 43.8406 390.095 46.0234Z" fill="#CE7A63"/>
<path d="M89.9905 222.012L57.7703 218.261C57.5707 218.238 57.3776 218.176 57.2021 218.078C57.0266 217.98 56.8721 217.848 56.7473 217.691C56.6226 217.533 56.5302 217.353 56.4753 217.159C56.4204 216.966 56.404 216.764 56.4273 216.564L56.5678 215.357L90.3079 219.285L89.9905 222.012Z" fill="#263238"/>
<path opacity="0.2" d="M89.9905 222.012L57.7703 218.261C57.5707 218.238 57.3776 218.176 57.2021 218.078C57.0266 217.98 56.8721 217.848 56.7473 217.691C56.6226 217.533 56.5302 217.353 56.4753 217.159C56.4204 216.966 56.404 216.764 56.4273 216.564L56.5678 215.357L90.3079 219.285L89.9905 222.012Z" fill="white"/>
<path d="M110.058 224.406L83.75 221.343C83.3469 221.296 82.9789 221.091 82.727 220.773C82.4752 220.455 82.3601 220.049 82.407 219.646L82.5475 218.439L110.376 221.679L110.058 224.406Z" fill="#263238"/>
<path opacity="0.5" d="M110.058 224.406L83.75 221.343C83.3469 221.296 82.9789 221.091 82.727 220.773C82.4752 220.455 82.3601 220.049 82.407 219.646L82.5475 218.439L110.376 221.679L110.058 224.406Z" fill="white"/>
<path d="M104.012 222.812L106.739 223.129L106.852 222.157L104.125 221.84L104.012 222.812Z" fill="#263238"/>
<path d="M99.7518 222.32L102.479 222.637L102.592 221.665L99.865 221.348L99.7518 222.32Z" fill="#263238"/>
<path d="M108.55 221.467L110.362 221.669L115.099 197.254L113.287 197.04L108.55 221.467Z" fill="#263238"/>
<path opacity="0.3" d="M108.55 221.467L110.362 221.669L115.099 197.254L113.287 197.04L108.55 221.467Z" fill="white"/>
<path d="M109.214 221.546L77.3501 217.833L82.0982 193.406L113.962 197.119L109.214 221.546Z" fill="#33B8FC"/>
<path opacity="0.5" d="M109.214 221.546L77.3501 217.833L82.0982 193.406L113.962 197.119L109.214 221.546Z" fill="white"/>
<path d="M44.1696 168.068C43.292 169.812 42.3243 171.702 41.458 173.547C40.5916 175.392 39.714 177.26 38.9264 179.173C38.1388 181.086 37.3625 182.897 36.6761 184.731C36.0487 186.426 35.5706 188.173 35.2472 189.952C35.1329 190.552 35.0801 191.163 35.0897 191.774V191.932V191.842C34.9322 191.617 35.8885 192.731 36.5749 193.215C37.2612 193.698 38.0826 194.194 38.9264 194.666C42.3018 196.579 46.2286 198.278 49.9978 200.022L48.7264 205.287C46.4889 205.114 44.2644 204.802 42.0656 204.354C39.8148 203.923 37.5967 203.336 35.4272 202.598C34.2731 202.207 33.1455 201.741 32.0518 201.203C30.7269 200.581 29.4898 199.786 28.3726 198.84C27.5583 198.131 26.8731 197.286 26.3473 196.343C26.2686 196.196 26.1898 196.039 26.1223 195.892L25.9536 195.51C25.8504 195.264 25.7603 195.012 25.6835 194.756C25.5355 194.296 25.419 193.826 25.3347 193.35C25.0805 191.837 25.0276 190.297 25.1772 188.77C25.4449 186.308 25.9344 183.876 26.6399 181.502C27.3037 179.252 28.0688 177.114 28.8902 175.01C29.7115 172.906 30.6004 170.869 31.568 168.867C32.5356 166.864 33.4807 164.906 34.6396 162.881L44.1696 168.068Z" fill="#FFB573"/>
<path d="M47.4891 200.19L55.5901 198.109L56.2652 205.4C56.2652 205.4 50.797 207.65 47.4329 204.128L47.4891 200.19Z" fill="#FFB573"/>
<path d="M58.864 199.178L60.5855 205.051L56.2649 205.4L55.5898 198.109L58.864 199.178Z" fill="#FFB573"/>
<path d="M26.9885 176.652L38.555 182.379C38.555 182.379 41.5253 183.324 46.9935 174.582C53.3281 164.456 49.8626 158.695 42.2229 158.425C34.5832 158.155 31.5903 167.797 26.9885 176.652Z" fill="#33B8FC"/>
<path opacity="0.5" d="M26.9885 176.652L38.555 182.379C38.555 182.379 41.5253 183.324 46.9935 174.582C53.3281 164.456 49.8626 158.695 42.2229 158.425C34.5832 158.155 31.5903 167.797 26.9885 176.652Z" fill="white"/>
<path opacity="0.2" d="M31.2417 178.79L37.8575 182.064L41.2217 178.093L37.4862 168.135L36.4511 166.987L33.852 166.616L31.2417 178.79Z" fill="black"/>
<path d="M26.8987 175.809L39.7028 182.357L37.9926 184.382L26.2124 178.374L26.8987 175.809Z" fill="#33B8FC"/>
<path d="M61.5305 132.536C61.9131 132.446 62.3744 132.783 62.5769 133.357C62.7794 133.931 62.6332 134.482 62.2506 134.606C61.8681 134.73 61.4068 134.347 61.2042 133.785C61.0017 133.222 61.1592 132.626 61.5305 132.536Z" fill="#2E353A"/>
<path d="M63.5784 138.656C64.0052 138.612 64.417 138.473 64.7845 138.252C65.152 138.03 65.4663 137.73 65.7049 137.374C64.2425 136.484 62.9033 135.406 61.7219 134.167L63.5784 138.656Z" fill="#ED893E"/>
<path d="M58.9991 131.658C59.0686 131.226 59.2394 130.816 59.4975 130.462C59.7557 130.108 60.0938 129.82 60.4843 129.621C60.559 129.585 60.6182 129.523 60.6512 129.447C60.6842 129.37 60.6889 129.285 60.6643 129.205C60.6358 129.117 60.5742 129.043 60.4924 128.999C60.4106 128.955 60.315 128.944 60.2255 128.969C59.7194 129.205 59.2797 129.563 58.9458 130.01C58.612 130.458 58.3945 130.982 58.3128 131.534C58.3047 131.579 58.3057 131.624 58.3156 131.668C58.3254 131.712 58.344 131.754 58.3702 131.791C58.3965 131.827 58.4298 131.858 58.4682 131.882C58.5067 131.906 58.5495 131.921 58.5941 131.928H58.7741C58.8315 131.906 58.8824 131.87 58.9218 131.822C58.9612 131.775 58.9878 131.718 58.9991 131.658Z" fill="#2E353A"/>
<path d="M44.9006 159.359C44.5068 161.08 44.248 161.902 45.8007 162.656C48.9936 164.324 52.6367 164.928 56.197 164.377C59.8762 163.747 60.5401 162.431 60.3825 161.373C60.2563 160.967 60.037 160.595 59.7421 160.289C59.4471 159.982 59.0847 159.748 58.6836 159.606C57.8675 159.253 57.1745 158.666 56.6919 157.919C56.2093 157.172 55.9588 156.299 55.972 155.41C55.793 154.466 55.793 153.496 55.972 152.552L49.4912 148.198L44.5181 142.662C45.7399 148.149 45.8699 153.822 44.9006 159.359Z" fill="#FFB573"/>
<path d="M65.6147 163.207C65.6147 163.207 63.1731 156.456 59.2351 154.948C55.2972 153.441 43.4832 154.262 43.4832 154.262C42.9093 156.684 42.1572 159.061 41.2329 161.373L65.6147 163.207Z" fill="#33B8FC"/>
<path d="M41.4356 135.281C41.5178 132.624 42.6522 130.108 44.5892 128.287C46.5262 126.466 49.1071 125.489 51.7643 125.571C59.3815 125.841 63.8371 135.63 64.5234 142.302C65.2773 149.717 57.9864 155.916 51.0218 152.541C46.3749 150.29 45.081 146.263 42.2794 139.579C41.6879 138.225 41.3999 136.758 41.4356 135.281Z" fill="#FFB573"/>
<path opacity="0.2" d="M42.6619 157.187C42.2343 158.605 41.7617 160 41.2217 161.373L63.7245 163.072C63.1733 161.735 62.4752 160.463 61.643 159.28C56.2423 157.086 46.7124 157.075 42.6619 157.187Z" fill="black"/>
<path d="M117.012 284.756L123.886 281.785L129.174 298.336L122.3 301.318L117.012 284.756Z" fill="#FFB573"/>
<path opacity="0.2" d="M117.012 284.756L123.886 281.785L126.53 290.055L119.577 292.789L117.012 284.756Z" fill="black"/>
<path d="M129.939 295.434C131.998 297.155 136.195 298.404 139.413 298.584C141.888 298.719 142.102 301.554 138.996 302.083C135.891 302.612 130.479 302.353 128.206 302.454C124.516 302.589 123.267 303.197 120.33 303.152C119.981 303.134 119.653 302.981 119.415 302.725C119.177 302.468 119.05 302.129 119.059 301.779L119.678 295.152C119.689 295.011 119.756 294.88 119.863 294.787C119.97 294.695 120.11 294.648 120.251 294.657L128.645 294.927C129.121 294.944 129.578 295.122 129.939 295.434Z" fill="#33B8FC"/>
<path d="M54.2175 216.438C54.2175 216.438 48.4455 223.278 53.0923 234.113C58.3467 246.389 86.2277 240.999 101.473 244.915C103.645 266.596 116.303 288.795 116.303 288.795L126.879 284.655C126.879 284.655 122.3 267.384 118.857 236.791C117.169 221.737 78.9705 220.094 78.9705 220.094L54.2175 216.438Z" fill="#33B8FC"/>
<path d="M114.187 286.882L127.666 282.179L128.476 287.107L116.201 291.563L114.187 286.882Z" fill="#33B8FC"/>
<path d="M84.4612 291.855L91.8871 291.507L90.672 309.014L83.2573 309.374L84.4612 291.855Z" fill="#FFB573"/>
<path d="M92.6971 307.18C94.7561 308.89 98.2215 311.275 101.406 311.737C103.453 312.029 104.995 315.112 101.158 315.112C97.3214 315.112 93.2822 314.752 90.9531 314.673C87.2627 314.561 86.0363 314.887 83.0771 314.887C82.7269 314.872 82.3967 314.72 82.1586 314.463C81.9204 314.206 81.7935 313.865 81.8057 313.514L82.4133 306.887C82.4275 306.747 82.495 306.618 82.6017 306.526C82.7084 306.433 82.8463 306.386 82.9871 306.392L91.3807 306.651C91.8677 306.669 92.3332 306.856 92.6971 307.18Z" fill="#33B8FC"/>
<path opacity="0.2" d="M83.7971 301.52L91.178 301.532L91.8869 291.507L84.4609 291.867L83.7971 301.52Z" fill="black"/>
<path d="M35.675 217.63C35.675 217.63 29.588 230.007 35.5062 237.883C40.8619 245.072 68.2028 245.545 82.1208 245.545C80.7368 262.501 82.267 297.301 82.267 297.301L93.3947 297.144C93.3947 297.144 101.271 263.66 102.857 240.234C103.757 227.216 57.424 218.587 57.424 218.587L35.675 217.63Z" fill="#33B8FC"/>
<path d="M80.7251 295.028L96.0158 294.578L95.3519 299.146L81.3102 299.349L80.7251 295.028Z" fill="#33B8FC"/>
<path d="M35.45 219.396L74.4248 220.184L75.7413 168.889C75.4969 166.091 74.2152 163.486 72.1478 161.585C70.0805 159.684 67.377 158.625 64.5686 158.616H41.7845C40.735 158.609 39.6946 158.811 38.7243 159.211C37.7541 159.611 36.8736 160.201 36.1346 160.946C35.3956 161.692 34.813 162.577 34.4211 163.551C34.0292 164.524 33.8358 165.567 33.8523 166.616L35.45 219.396Z" fill="#33B8FC"/>
<path opacity="0.6" d="M35.45 219.396L74.4248 220.184L75.7413 168.889C75.4969 166.091 74.2152 163.486 72.1478 161.585C70.0805 159.684 67.377 158.625 64.5686 158.616H41.7845C40.735 158.609 39.6946 158.811 38.7243 159.211C37.7541 159.611 36.8736 160.201 36.1346 160.946C35.3956 161.692 34.813 162.577 34.4211 163.551C34.0292 164.524 33.8358 165.567 33.8523 166.616L35.45 219.396Z" fill="white"/>
<path d="M75.1674 167.696L75.8988 170.577C76.1576 171.567 76.4276 172.557 76.7201 173.547C77.3052 175.516 77.8453 177.485 78.5541 179.409C79.2629 181.333 79.893 183.234 80.6581 185.035C81.3924 186.84 82.2302 188.602 83.1672 190.312C83.6026 191.134 84.0795 191.934 84.5961 192.708C84.7277 192.842 84.8893 192.942 85.0673 193.001C85.2453 193.059 85.4348 193.075 85.62 193.046C86.4683 192.992 87.311 192.872 88.1403 192.686C92.0634 191.692 95.9101 190.417 99.6505 188.871L102.542 193.451C100.806 194.942 98.9673 196.311 97.0401 197.546C95.0605 198.841 92.9665 199.952 90.7844 200.865C89.5715 201.382 88.3135 201.785 87.0264 202.069C85.3761 202.452 83.6655 202.498 81.997 202.204C80.7771 201.974 79.624 201.474 78.6216 200.742C78.0696 200.341 77.5739 199.868 77.1477 199.335L76.5514 198.604C75.8013 197.614 75.0812 196.612 74.3911 195.6C71.9037 191.642 69.8407 187.434 68.2366 183.043C67.449 180.905 66.7176 178.756 66.0988 176.574C65.7838 175.449 65.4912 174.402 65.2099 173.299C64.9287 172.197 64.6811 171.139 64.4336 169.924L75.1674 167.696Z" fill="#FFB573"/>
<path d="M101.248 193.934L108.787 190.3L104.624 184.303C104.624 184.303 98.9981 186.092 98.6943 190.964L101.248 193.934Z" fill="#FFB573"/>
<path d="M110.564 187.375L108.089 181.772L104.567 184.304L108.753 190.301L110.564 187.375Z" fill="#FFB573"/>
<path d="M68.0676 185.102L79.6903 180.973C79.6903 180.973 81.3442 179.386 78.3401 169.553C74.8409 158.087 68.2139 156.951 63.027 162.521C57.8401 168.09 64.4334 175.786 68.0676 185.102Z" fill="#33B8FC"/>
<path opacity="0.5" d="M68.0676 185.102L79.6903 180.973C79.6903 180.973 81.3442 179.386 78.3401 169.553C74.8409 158.087 68.2139 156.951 63.027 162.521C57.8401 168.09 64.4334 175.786 68.0676 185.102Z" fill="white"/>
<path d="M66.8298 184.089L80.399 179.319L80.6916 181.952L68.2138 186.351L66.8298 184.089Z" fill="#33B8FC"/>
<path d="M45.9136 148.839C47.7109 148.565 49.547 148.708 51.2805 149.255C51.5977 149.364 51.9432 149.355 52.2547 149.231C52.5662 149.107 52.8232 148.877 52.9795 148.58C53.9809 146.679 55.9724 142.831 56.7375 141.098C56.7375 141.098 60.2592 139.376 58.504 134.617C56.7487 129.858 56.7375 128.35 56.7375 128.35C56.7375 128.35 62.2057 123.568 57.0188 120.755C51.8319 117.942 54.2059 123.096 48.4902 124.221C42.7745 125.346 36.2937 130.972 38.6452 137.824C40.3779 142.876 43.5283 146.577 44.4735 148.164C44.6173 148.408 44.8319 148.604 45.0889 148.724C45.346 148.845 45.6335 148.885 45.9136 148.839Z" fill="#263238"/>
<path d="M54.3071 136.001C56.2198 135.709 58.2788 137.644 58.9539 139.377C59.7077 141.334 58.7289 143.562 56.7036 143.022C55.1483 142.578 53.8082 141.582 52.9344 140.221C51.8768 138.488 52.3943 136.283 54.3071 136.001Z" fill="#FFB573"/>
<path d="M51.528 291.326V248.92H44.7772V291.428L27.585 295.928C26.146 296.31 24.8737 297.158 23.9662 298.338C23.0586 299.518 22.5666 300.965 22.5669 302.454V303.838C22.5669 304.509 22.8336 305.153 23.3084 305.628C23.7831 306.103 24.427 306.37 25.0985 306.37C25.7699 306.37 26.4138 306.103 26.8885 305.628C27.3633 305.153 27.63 304.509 27.63 303.838C27.6268 303.049 27.8859 302.282 28.3666 301.657C28.8473 301.031 29.5223 300.583 30.2854 300.384L44.7772 296.558V303.838C44.7772 304.509 45.0439 305.153 45.5186 305.628C45.9934 306.103 46.6373 306.37 47.3087 306.37H48.9852C49.6566 306.37 50.3005 306.103 50.7753 305.628C51.25 305.153 51.5167 304.509 51.5167 303.838V296.513L65.941 300.508C66.7214 300.71 67.4105 301.17 67.8966 301.814C68.3826 302.457 68.6371 303.246 68.6189 304.052C68.6128 304.722 68.8719 305.368 69.3397 305.849C69.8075 306.329 70.4462 306.605 71.1167 306.617C71.4501 306.622 71.7811 306.56 72.0906 306.436C72.4002 306.312 72.6823 306.129 72.9207 305.896C73.159 305.662 73.349 305.385 73.4796 305.078C73.6103 304.771 73.6791 304.441 73.682 304.108V302.724C73.6987 301.235 73.2222 299.781 72.3267 298.591C71.4313 297.4 70.1672 296.539 68.7314 296.142L51.528 291.326Z" fill="#263238"/>
<path d="M20.9243 311.084C20.9221 310.271 21.1611 309.476 21.611 308.799C22.0609 308.122 22.7015 307.594 23.4517 307.282C24.2019 306.969 25.028 306.886 25.8254 307.043C26.6227 307.201 27.3555 307.591 27.931 308.165C28.5065 308.739 28.8987 309.47 29.0581 310.267C29.2175 311.064 29.1368 311.89 28.8263 312.642C28.5158 313.393 27.9894 314.035 27.3138 314.486C26.6383 314.938 25.8438 315.179 25.0311 315.179C23.9439 315.179 22.901 314.748 22.1311 313.98C21.3613 313.213 20.9273 312.171 20.9243 311.084Z" fill="#33B8FC"/>
<path d="M67.0999 311.084C67.0976 310.271 67.3366 309.476 67.7865 308.799C68.2364 308.122 68.877 307.594 69.6272 307.282C70.3774 306.969 71.2035 306.886 72.0009 307.043C72.7983 307.201 73.5311 307.591 74.1065 308.165C74.682 308.739 75.0743 309.47 75.2336 310.267C75.393 311.064 75.3123 311.89 75.0018 312.642C74.6913 313.393 74.165 314.035 73.4894 314.486C72.8138 314.938 72.0194 315.179 71.2066 315.179C70.1194 315.179 69.0765 314.748 68.3067 313.98C67.5368 313.213 67.1028 312.171 67.0999 311.084Z" fill="#33B8FC"/>
<path d="M44.012 311.084C44.0098 310.271 44.2487 309.476 44.6986 308.799C45.1485 308.122 45.7891 307.594 46.5393 307.282C47.2896 306.969 48.1156 306.886 48.913 307.043C49.7104 307.201 50.4432 307.591 51.0187 308.165C51.5941 308.739 51.9864 309.47 52.1457 310.267C52.3051 311.064 52.2245 311.89 51.914 312.642C51.6035 313.393 51.0771 314.035 50.4015 314.486C49.7259 314.938 48.9315 315.179 48.1187 315.179C47.0315 315.179 45.9886 314.748 45.2188 313.98C44.449 313.213 44.015 312.171 44.012 311.084Z" fill="#33B8FC"/>
<path opacity="0.6" d="M51.5277 248.954H44.7881V258.529H51.5277V248.954Z" fill="black"/>
<path opacity="0.6" d="M39.7588 297.954L44.0118 296.828V291.664L39.7588 292.789V297.954Z" fill="black"/>
<path opacity="0.6" d="M56.4789 292.699L52.2146 291.518V296.705L56.4789 297.886V292.699Z" fill="black"/>
<path d="M53.6545 246.107H94.5984C95.8457 246.107 97.042 246.603 97.924 247.485C98.806 248.367 99.3015 249.563 99.3015 250.81H53.6545V246.107Z" fill="#33B8FC"/>
<path opacity="0.5" d="M53.6545 246.107H94.5984C95.8457 246.107 97.042 246.603 97.924 247.485C98.806 248.367 99.3015 249.563 99.3015 250.81H53.6545V246.107Z" fill="black"/>
<path d="M24.5922 185.912C10.2017 185.912 -0.0483268 196.646 0.705517 210.935L2.34822 242.169C2.47209 244.491 3.48159 246.676 5.16875 248.275C6.85591 249.875 9.09219 250.766 11.4169 250.765H69.249L57.3001 210.935C53.0133 196.691 38.9828 185.912 24.5922 185.912Z" fill="#33B8FC"/>
<path opacity="0.1" d="M24.5922 185.912C10.2017 185.912 -0.0483268 196.646 0.705517 210.935L2.34822 242.169C2.47209 244.491 3.48159 246.676 5.16875 248.275C6.85591 249.875 9.09219 250.766 11.4169 250.765H69.249L57.3001 210.935C53.0133 196.691 38.9828 185.912 24.5922 185.912Z" fill="black"/>
<path opacity="0.3" d="M21.6779 186.115C8.84008 187.465 0.00773376 197.67 0.705321 210.98L2.34802 242.169C2.47189 244.491 3.4814 246.676 5.16855 248.275C6.85571 249.875 9.092 250.766 11.4167 250.765H63.4206L51.4716 210.935C47.4774 197.659 35.0108 187.442 21.6779 186.115Z" fill="black"/>
<path d="M75.7519 249.46C75.3328 249.039 75.0975 248.468 75.0975 247.874C75.0975 247.279 75.3328 246.709 75.7519 246.287L88.0047 234.034C88.1829 233.857 88.3044 233.63 88.3536 233.383C88.4028 233.136 88.3777 232.88 88.2812 232.647C88.1848 232.415 88.0215 232.216 87.8121 232.077C87.6026 231.937 87.3563 231.862 87.1045 231.863H60.8438C60.247 231.863 59.6746 231.626 59.2526 231.204C58.8306 230.782 58.5935 230.209 58.5935 229.613C58.5935 229.016 58.8306 228.443 59.2526 228.021C59.6746 227.599 60.247 227.362 60.8438 227.362H86.8683C87.9454 227.342 89.0081 227.613 89.9446 228.145C90.881 228.678 91.6568 229.453 92.1902 230.389C92.7832 231.483 93.0062 232.739 92.8257 233.97C92.6452 235.201 92.0709 236.341 91.1888 237.219L78.936 249.46C78.727 249.669 78.4789 249.835 78.2057 249.949C77.9325 250.062 77.6397 250.12 77.344 250.12C77.0482 250.12 76.7554 250.062 76.4822 249.949C76.2091 249.835 75.9609 249.669 75.7519 249.46Z" fill="#263238"/>
<path opacity="0.2" d="M92.2464 230.389C91.713 229.453 90.9373 228.678 90.0008 228.145C89.0643 227.613 88.0017 227.342 86.9245 227.362H60.8438C60.247 227.362 59.6746 227.599 59.2526 228.021C58.8306 228.443 58.5935 229.016 58.5935 229.613C58.5935 230.209 58.8306 230.782 59.2526 231.204C59.6746 231.626 60.247 231.863 60.8438 231.863H87.1045C87.3092 231.858 87.5115 231.908 87.6896 232.009H92.764C92.6686 231.447 92.4944 230.902 92.2464 230.389Z" fill="white"/>
<path d="M178.309 216.921H145.871C145.67 216.921 145.471 216.882 145.286 216.805C145.1 216.728 144.931 216.615 144.789 216.473C144.647 216.331 144.534 216.162 144.458 215.977C144.381 215.791 144.341 215.592 144.341 215.391V214.176H178.309V216.921Z" fill="#263238"/>
<path opacity="0.2" d="M178.309 216.921H145.871C145.67 216.921 145.471 216.882 145.286 216.805C145.1 216.728 144.931 216.615 144.789 216.473C144.647 216.331 144.534 216.162 144.458 215.977C144.381 215.791 144.341 215.592 144.341 215.391V214.176H178.309V216.921Z" fill="white"/>
<path d="M198.55 216.921H172.064C171.658 216.921 171.269 216.76 170.982 216.473C170.695 216.186 170.534 215.797 170.534 215.391V214.176H198.55V216.921Z" fill="#263238"/>
<path opacity="0.5" d="M198.55 216.921H172.064C171.658 216.921 171.269 216.76 170.982 216.473C170.695 216.186 170.534 215.797 170.534 215.391V214.176H198.55V216.921Z" fill="white"/>
<path d="M192.35 216.032H195.096V215.054H192.35V216.032Z" fill="#263238"/>
<path d="M188.074 216.032H190.82V215.054H188.074V216.032Z" fill="#263238"/>
<path d="M196.694 214.176H198.517L200.407 189.367H198.573L196.694 214.176Z" fill="#263238"/>
<path opacity="0.3" d="M196.694 214.176H198.517L200.407 189.367H198.573L196.694 214.176Z" fill="white"/>
<path d="M197.358 214.176H165.28L167.171 189.367H199.248L197.358 214.176Z" fill="#33B8FC"/>
<path opacity="0.4" d="M197.358 214.176H165.28L167.171 189.367H199.248L197.358 214.176Z" fill="white"/>
<path d="M143.036 162.768C142.046 166.29 141.798 170.071 146.861 171.443C146.861 171.443 151.587 178.104 145.916 182.571C142.324 177.842 137.792 173.908 132.606 171.016C135.903 168.068 135.261 159.663 134.496 155.061L143.036 162.768Z" fill="#CE7A63"/>
<path d="M149.325 144.474C149.708 144.373 150.181 144.733 150.372 145.318C150.563 145.903 150.372 146.522 150.012 146.612C149.652 146.702 149.157 146.364 148.965 145.768C148.774 145.171 148.932 144.564 149.325 144.474Z" fill="#2E353A"/>
<path d="M150.45 143.686L149.156 144.552C150.079 145.036 150.45 143.686 150.45 143.686Z" fill="#2E353A"/>
<path d="M150.754 150.842C151.149 150.814 151.532 150.698 151.877 150.504C152.221 150.309 152.518 150.04 152.746 149.717C151.481 148.848 150.345 147.807 149.37 146.623L150.754 150.842Z" fill="#BA4D3C"/>
<path d="M147.919 140.592C147.54 140.852 147.229 141.2 147.011 141.605C146.794 142.01 146.677 142.461 146.67 142.921C146.671 142.968 146.663 143.015 146.647 143.06C146.63 143.104 146.605 143.144 146.572 143.179C146.54 143.213 146.501 143.241 146.458 143.261C146.415 143.28 146.368 143.291 146.321 143.292C146.274 143.294 146.228 143.286 146.184 143.269C146.14 143.252 146.101 143.227 146.067 143.194C146.033 143.162 146.007 143.123 145.989 143.08C145.97 143.037 145.961 142.99 145.961 142.943C145.962 142.363 146.102 141.791 146.371 141.276C146.639 140.761 147.027 140.318 147.502 139.984C147.581 139.93 147.677 139.908 147.771 139.922C147.866 139.937 147.951 139.987 148.009 140.063C148.041 140.117 148.059 140.18 148.059 140.243C148.059 140.307 148.041 140.369 148.009 140.423C147.998 140.488 147.966 140.547 147.919 140.592Z" fill="#2E353A"/>
<path d="M127.273 144.845C127.51 142.098 128.829 139.558 130.939 137.784C133.049 136.009 135.777 135.146 138.524 135.383C146.58 135.979 151.047 146.454 151.587 153.486C152.194 161.306 144.06 166.29 136.724 162.487C131.807 159.944 130.862 156.861 128.026 149.739C127.391 148.191 127.132 146.513 127.273 144.845Z" fill="#CE7A63"/>
<path opacity="0.21" d="M123.346 154.094C112.792 140.761 125.753 136.924 125.753 136.924C129.815 131.298 136.51 130.173 142.63 132.502C148.751 134.831 146.951 138.972 144.712 139.377C148.897 144.913 146.501 147.669 145.117 148.063C147.311 161.992 133.877 167.427 123.346 154.094Z" fill="#263238"/>
<path d="M132.628 212.972C130.555 212.706 128.506 212.285 126.496 211.712C126.197 211.612 125.904 211.496 125.618 211.363L125.528 209.889C125.292 205.479 125.202 200.978 125.101 196.467L124.876 182.965H117.09C117.09 187.567 117.18 192.123 117.382 196.703C117.585 201.282 117.855 205.861 118.373 210.497L118.643 212.252L118.778 213.13C118.802 213.402 118.844 213.673 118.901 213.94C118.986 214.198 119.087 214.449 119.205 214.694C119.417 215.102 119.681 215.48 119.993 215.819C120.424 216.267 120.921 216.646 121.467 216.944C121.858 217.166 122.264 217.362 122.682 217.529C123.364 217.788 124.063 217.999 124.775 218.159C127.19 218.652 129.646 218.915 132.11 218.947C136.76 219.054 141.411 218.828 146.028 218.272L145.95 214.458C141.483 214.041 136.971 213.636 132.628 212.972Z" fill="#CE7A63"/>
<path d="M131.537 180.444C131.537 185.159 128.702 193.946 128.702 193.946L117 186.79C116.471 180.748 117.72 172.985 123.515 171.094C127.464 169.823 131.492 175.426 131.537 180.444Z" fill="#263238"/>
<path opacity="0.6" d="M123.132 177.058L120.443 179.713L119.925 188.59L128.701 193.98C128.701 193.98 131.537 185.159 131.537 180.478C131.509 179.254 131.285 178.042 130.873 176.889L126.834 175.674L123.132 177.058Z" fill="black"/>
<path d="M156.683 216.55C156.761 216.369 156.803 216.174 156.805 215.977C156.808 215.78 156.772 215.585 156.699 215.402C156.625 215.219 156.517 215.052 156.379 214.911C156.241 214.77 156.077 214.658 155.896 214.581L152.577 213.175C151.863 212.881 151.074 212.825 150.326 213.017L143.103 214.963L142.214 217.405C143.339 220.207 148.121 219.655 148.121 219.655L151.553 220.713C151.987 220.847 152.451 220.847 152.885 220.713C153.318 220.578 153.701 220.315 153.983 219.959L156.492 216.865C156.571 216.77 156.636 216.664 156.683 216.55Z" fill="#CE7A63"/>
<path d="M151.418 170.982C149.921 170.723 148.346 170.487 146.816 170.307C142.107 169.827 137.369 169.684 132.639 169.879C130.31 169.879 128.026 170.093 126.023 170.307H125.866C124.125 170.539 122.548 171.453 121.48 172.847C120.413 174.242 119.943 176.003 120.173 177.744C123.008 197.997 124.246 206.581 123.424 218.137L154.726 219.082C158.371 200.224 159.856 188.984 160.351 182.368C160.548 179.699 159.741 177.052 158.089 174.946C156.437 172.84 154.058 171.426 151.418 170.982Z" fill="#263238"/>
<path d="M187.749 287.04L195.141 286.343L200.125 304.547L192.733 305.245L187.749 287.04Z" fill="#CE7A63"/>
<path d="M134.034 218.125C122.142 233.877 123.087 247.3 135.373 247.3C146.321 247.3 159.969 247.953 174.753 247.008C178.005 270.85 190.426 298.629 190.426 298.629L198.629 297.864C198.629 297.864 191.147 262.985 190.573 238.626C190.213 223.897 148.627 225.124 148.627 225.124C148.627 225.124 141.337 218.17 134.034 218.125Z" fill="#263238"/>
<path opacity="0.3" d="M134.034 218.125C122.142 233.877 123.087 247.3 135.373 247.3C146.321 247.3 159.969 247.953 174.753 247.008C178.005 270.85 190.426 298.629 190.426 298.629L198.629 297.864C198.629 297.864 191.147 262.985 190.573 238.626C190.213 223.897 148.627 225.124 148.627 225.124C148.627 225.124 141.337 218.17 134.034 218.125Z" fill="white"/>
<path opacity="0.2" d="M191.552 252.881C191.068 247.964 190.719 243.115 190.618 238.625C190.258 223.897 148.672 225.124 148.672 225.124C147.753 224.29 146.788 223.508 145.781 222.783C144.172 222.986 143.249 223.121 143.249 223.121C143.249 223.121 136.971 223.02 130.715 222.975C122.468 236.476 124.381 247.278 135.373 247.278C141.877 247.278 149.359 247.503 157.46 247.492C168.464 244.487 179.85 240.741 185.015 239.098C186.725 243.9 188.915 248.518 191.552 252.881Z" fill="black"/>
<path d="M123.526 216.044L155.232 216.989C155.536 216.989 155.75 217.169 155.75 217.36L155.39 220.196C155.39 220.364 155.12 220.488 154.838 220.488L122.626 219.543C122.266 219.543 122.018 219.307 122.131 219.093L123.02 216.314C123.069 216.225 123.143 216.152 123.233 216.104C123.323 216.056 123.424 216.035 123.526 216.044Z" fill="#263238"/>
<path d="M175.845 206.57C172.47 207.009 168.959 207.437 165.595 207.695C163.98 207.851 162.357 207.911 160.734 207.875C160.293 207.864 159.853 207.819 159.418 207.74C159.129 206.485 158.93 205.21 158.822 203.926C158.698 202.34 158.664 200.742 158.698 199.144C158.732 197.547 158.878 195.859 159.047 194.239C159.126 193.417 159.227 192.562 159.351 191.786C159.474 191.01 159.598 190.121 159.722 189.457L152.127 187.837C151.902 188.872 151.745 189.738 151.61 190.672C151.475 191.606 151.373 192.495 151.272 193.462C151.084 195.332 150.998 197.21 151.013 199.088C150.982 203.025 151.614 206.939 152.881 210.666L153.005 211.026L153.106 211.273L153.241 211.588C153.343 211.782 153.455 211.97 153.579 212.151C153.993 212.746 154.535 213.242 155.165 213.602C155.906 214.017 156.72 214.288 157.562 214.401C158.68 214.559 159.813 214.586 160.937 214.48C162.832 214.317 164.712 214.017 166.563 213.58C170.084 212.754 173.54 211.671 176.903 210.339L175.845 206.57Z" fill="#CE7A63"/>
<path d="M147.289 179.477C144.813 182.942 149.764 192.393 149.764 192.393L159.553 191.775C159.553 191.775 162.107 179.623 157.606 174.358C155.176 171.545 149.899 175.865 147.289 179.477Z" fill="#263238"/>
<path d="M183.878 200.404C184.089 200.427 184.293 200.491 184.478 200.592C184.663 200.694 184.827 200.832 184.959 200.997C185.091 201.162 185.188 201.352 185.246 201.556C185.304 201.759 185.321 201.972 185.296 202.182L184.914 206.435C184.885 206.754 184.763 207.058 184.563 207.308C184.363 207.558 184.093 207.743 183.788 207.842L179.918 208.967C179.918 208.967 172.773 213.467 170.467 211.521L173.133 207.83L178.005 202.272C178.554 201.639 179.298 201.207 180.12 201.046L183.383 200.393C183.548 200.371 183.715 200.375 183.878 200.404Z" fill="#CE7A63"/>
<path d="M200.744 304.052C202.499 305.841 205.492 308.373 208.418 309.093C210.285 309.554 211.433 312.581 207.877 312.221C204.322 311.861 200.53 311.095 198.438 310.87C195.062 310.42 193.847 310.612 191.124 310.342C190.801 310.294 190.509 310.121 190.313 309.86C190.117 309.598 190.033 309.27 190.078 308.946L191.259 302.927C191.284 302.798 191.357 302.684 191.464 302.609C191.571 302.533 191.703 302.502 191.833 302.522L199.608 303.546C200.032 303.584 200.432 303.762 200.744 304.052Z" fill="#263238"/>
<path d="M144.656 139.388C144.656 139.388 148.504 143.754 145.95 148.468C145.95 148.468 143.598 151.416 144.656 157.604C145.714 163.792 150.451 168.777 139.807 168.72C129.793 168.664 117.225 170.689 118.632 160.912C118.632 160.912 114.064 156.625 119.205 152.046C119.205 152.046 115.324 146.668 120.117 142.415C120.117 142.415 117.641 133.627 126.215 134.066C126.215 134.066 128.128 125.324 137.264 130.229C137.264 130.229 141.134 124.064 146.996 130.229C146.996 130.229 156.538 131.006 149.809 136.553C149.809 136.575 150.135 141.076 144.656 139.388Z" fill="#263238"/>
<path d="M151.879 148.457C151.651 148.455 151.431 148.371 151.26 148.22C150.405 147.5 150.056 145.171 149.955 144.204L145.455 146.33L145.218 145.812L151.463 142.898C151.615 142.818 151.785 142.775 151.958 142.775C152.13 142.775 152.3 142.818 152.453 142.898C152.605 142.978 152.737 143.092 152.838 143.23C152.939 143.368 153.008 143.528 153.038 143.697C153.286 145.194 153.432 147.14 152.779 147.995C152.685 148.119 152.567 148.222 152.431 148.297C152.296 148.373 152.146 148.419 151.992 148.434L151.879 148.457ZM150.495 143.956C150.596 144.991 150.945 147.219 151.62 147.793C151.698 147.861 151.798 147.897 151.902 147.894C151.981 147.888 152.059 147.865 152.129 147.826C152.199 147.787 152.26 147.734 152.307 147.669C152.712 147.14 152.768 145.734 152.442 143.81C152.431 143.726 152.4 143.646 152.351 143.577C152.302 143.508 152.236 143.453 152.16 143.416C152.084 143.377 151.999 143.357 151.913 143.357C151.827 143.357 151.742 143.377 151.665 143.416L150.495 143.956Z" fill="#33B8FC"/>
<path d="M141.753 148.479C141.711 148.129 141.738 147.774 141.833 147.434C141.929 147.094 142.09 146.777 142.309 146.5C142.527 146.223 142.799 145.991 143.107 145.819C143.415 145.647 143.754 145.538 144.105 145.498C146.152 145.284 147.728 147.748 148.178 149.447C148.673 151.382 147.592 153.16 145.59 152.53C144.078 152.032 142.824 150.956 142.102 149.537C141.909 149.214 141.79 148.853 141.753 148.479Z" fill="#CE7A63"/>
<path d="M210.601 270.681L216.868 264.74L225.25 277.477L220.232 281.82L210.601 270.681Z" fill="#CE7A63"/>
<path d="M126.384 218.384C125.642 218.377 124.919 218.619 124.331 219.072C123.743 219.525 123.325 220.162 123.143 220.882C118.913 237.377 123.684 247.345 135.374 247.345C146.321 247.345 176.194 237.568 185.577 234.53C193.453 257.235 216.125 277.567 216.125 277.567L222.077 272.11C222.077 272.11 208.868 246.67 199.732 224.044C194.489 211.048 143.812 218.553 143.812 218.553C143.812 218.553 133.731 218.384 126.384 218.384Z" fill="#263238"/>
<path opacity="0.3" d="M126.384 218.384C125.642 218.377 124.919 218.619 124.331 219.072C123.743 219.525 123.325 220.162 123.143 220.882C118.913 237.377 123.684 247.345 135.374 247.345C146.321 247.345 176.194 237.568 185.577 234.53C193.453 257.235 216.125 277.567 216.125 277.567L222.077 272.11C222.077 272.11 208.868 246.67 199.732 224.044C194.489 211.048 143.812 218.553 143.812 218.553C143.812 218.553 133.731 218.384 126.384 218.384Z" fill="white"/>
<path d="M225.34 274.653C227.837 274.461 231.449 272.56 233.722 270.58C235.455 269.049 237.457 270.805 235.725 273.179C233.992 275.553 230.223 278.928 228.771 280.469C226.397 282.979 225.959 284.194 223.99 286.095C223.745 286.311 223.425 286.422 223.099 286.406C222.773 286.389 222.467 286.245 222.246 286.005L218.33 281.178C218.286 281.129 218.253 281.07 218.232 281.008C218.211 280.945 218.203 280.878 218.208 280.812C218.213 280.746 218.232 280.681 218.262 280.623C218.293 280.564 218.335 280.512 218.386 280.469L224.17 275.17C224.491 274.871 224.903 274.689 225.34 274.653Z" fill="#263238"/>
<path d="M135.216 291.327V248.92H128.465V291.428L111.284 295.929C109.843 296.309 108.568 297.155 107.659 298.335C106.749 299.516 106.255 300.964 106.255 302.455V303.838C106.255 304.51 106.522 305.154 106.996 305.629C107.471 306.103 108.115 306.37 108.786 306.37C109.458 306.37 110.102 306.103 110.577 305.629C111.051 305.154 111.318 304.51 111.318 303.838C111.315 303.05 111.574 302.282 112.055 301.657C112.535 301.032 113.21 300.584 113.973 300.384L128.465 296.559V303.838C128.465 304.51 128.732 305.154 129.207 305.629C129.681 306.103 130.325 306.37 130.997 306.37H132.673C133.345 306.37 133.989 306.103 134.463 305.629C134.938 305.154 135.205 304.51 135.205 303.838V296.514L149.629 300.508C150.388 300.719 151.056 301.176 151.529 301.807C152.001 302.438 152.251 303.208 152.239 303.996C152.233 304.669 152.494 305.316 152.964 305.797C153.434 306.278 154.076 306.552 154.748 306.561C155.081 306.564 155.411 306.502 155.719 306.377C156.027 306.253 156.308 306.069 156.545 305.836C156.782 305.603 156.971 305.325 157.101 305.019C157.231 304.713 157.3 304.385 157.302 304.052V302.668C157.319 301.179 156.843 299.725 155.947 298.535C155.052 297.344 153.788 296.483 152.352 296.086L135.216 291.327Z" fill="#263238"/>
<path d="M104.624 311.084C104.621 310.271 104.861 309.476 105.311 308.798C105.761 308.121 106.403 307.593 107.154 307.281C107.904 306.969 108.731 306.887 109.529 307.045C110.326 307.203 111.059 307.594 111.634 308.169C112.209 308.744 112.601 309.477 112.759 310.275C112.917 311.072 112.835 311.899 112.522 312.65C112.21 313.401 111.682 314.042 111.005 314.492C110.328 314.943 109.532 315.182 108.719 315.18C107.634 315.177 106.594 314.744 105.826 313.977C105.059 313.21 104.627 312.17 104.624 311.084Z" fill="#33B8FC"/>
<path d="M150.754 311.084C150.752 310.272 150.991 309.477 151.441 308.8C151.891 308.123 152.531 307.595 153.282 307.282C154.032 306.97 154.858 306.887 155.655 307.044C156.453 307.201 157.185 307.591 157.761 308.165C158.336 308.739 158.729 309.471 158.888 310.268C159.047 311.065 158.967 311.891 158.656 312.642C158.346 313.393 157.819 314.035 157.144 314.487C156.468 314.939 155.674 315.18 154.861 315.18C153.774 315.18 152.731 314.749 151.961 313.981C151.191 313.213 150.757 312.172 150.754 311.084Z" fill="#33B8FC"/>
<path d="M127.7 311.084C127.698 310.272 127.937 309.477 128.387 308.8C128.837 308.123 129.477 307.595 130.228 307.282C130.978 306.97 131.804 306.887 132.601 307.044C133.399 307.201 134.131 307.591 134.707 308.165C135.282 308.739 135.675 309.471 135.834 310.268C135.993 311.065 135.913 311.891 135.602 312.642C135.292 313.393 134.765 314.035 134.09 314.487C133.414 314.939 132.62 315.18 131.807 315.18C130.721 315.177 129.679 314.745 128.91 313.978C128.141 313.211 127.706 312.171 127.7 311.084Z" fill="#33B8FC"/>
<path opacity="0.6" d="M135.216 248.954H128.476V258.529H135.216V248.954Z" fill="black"/>
<path opacity="0.6" d="M123.447 297.954L127.7 296.829V291.665L123.447 292.79V297.954Z" fill="black"/>
<path opacity="0.6" d="M140.166 292.7L135.902 291.518V296.705L140.166 297.887V292.7Z" fill="black"/>
<path d="M137.343 246.108H178.298C179.543 246.111 180.736 246.607 181.616 247.489C182.496 248.371 182.989 249.565 182.989 250.811H137.343V246.108Z" fill="#33B8FC"/>
<path opacity="0.5" d="M137.343 246.108H178.298C179.543 246.111 180.736 246.607 181.616 247.489C182.496 248.371 182.989 249.565 182.989 250.811H137.343V246.108Z" fill="black"/>
<path d="M108.28 185.913C93.8899 185.913 83.6399 196.646 84.3937 210.936L86.0477 242.17C86.1682 244.48 87.1675 246.658 88.8408 248.256C90.5141 249.854 92.735 250.752 95.0488 250.766H152.881L140.932 210.936C136.702 196.691 122.682 185.913 108.28 185.913Z" fill="#33B8FC"/>
<path opacity="0.1" d="M108.28 185.913C93.8899 185.913 83.6399 196.646 84.3937 210.936L86.0477 242.17C86.1682 244.48 87.1675 246.658 88.8408 248.256C90.5141 249.854 92.735 250.752 95.0488 250.766H152.881L140.932 210.936C136.702 196.691 122.682 185.913 108.28 185.913Z" fill="black"/>
<path opacity="0.3" d="M105.377 186.115C92.5283 187.465 83.696 197.67 84.3936 210.981L86.0475 242.17C86.168 244.48 87.1673 246.658 88.8406 248.256C90.5139 249.854 92.7348 250.752 95.0486 250.766H147.053L135.104 210.936C131.166 197.659 118.71 187.443 105.377 186.115Z" fill="black"/>
<path d="M159.451 249.46C159.032 249.039 158.797 248.468 158.797 247.874C158.797 247.279 159.032 246.709 159.451 246.287L171.704 234.035C171.882 233.857 172.004 233.63 172.053 233.383C172.102 233.136 172.077 232.88 171.981 232.648C171.884 232.415 171.721 232.216 171.512 232.077C171.302 231.937 171.056 231.863 170.804 231.863H144.543C143.946 231.863 143.374 231.626 142.952 231.204C142.53 230.782 142.293 230.21 142.293 229.613C142.293 229.016 142.53 228.444 142.952 228.022C143.374 227.6 143.946 227.363 144.543 227.363H170.556C171.634 227.343 172.696 227.613 173.633 228.146C174.569 228.678 175.345 229.453 175.878 230.389C176.471 231.483 176.694 232.74 176.514 233.971C176.333 235.202 175.759 236.341 174.877 237.219L162.624 249.46C162.203 249.879 161.632 250.115 161.038 250.115C160.443 250.115 159.873 249.879 159.451 249.46Z" fill="#263238"/>
<path opacity="0.2" d="M175.878 230.389C175.345 229.453 174.569 228.678 173.633 228.146C172.696 227.613 171.634 227.343 170.556 227.363H144.543C143.946 227.363 143.374 227.6 142.952 228.022C142.53 228.444 142.293 229.016 142.293 229.613C142.293 230.21 142.53 230.782 142.952 231.204C143.374 231.626 143.946 231.863 144.543 231.863H170.804C171.005 231.86 171.203 231.91 171.378 232.009H176.452C176.344 231.443 176.151 230.897 175.878 230.389Z" fill="white"/>
</svg>
