<?xml version="1.0" encoding="UTF-8"?>
<!DOCTYPE svg PUBLIC "-//W3C//DTD SVG 1.1//EN" "http://www.w3.org/Graphics/SVG/1.1/DTD/svg11.dtd">
<svg xmlns="http://www.w3.org/2000/svg" version="1.1" width="278px" height="296px" style="shape-rendering:geometricPrecision; text-rendering:geometricPrecision; image-rendering:optimizeQuality; fill-rule:evenodd; clip-rule:evenodd" xmlns:xlink="http://www.w3.org/1999/xlink">
<g><path style="opacity:0.753" fill="#71c9eb" d="M 199.5,9.5 C 199.5,9.83333 199.5,10.1667 199.5,10.5C 178.817,10.2657 158.151,10.5991 137.5,11.5C 139.631,10.6862 141.964,10.1862 144.5,10C 162.83,9.50006 181.164,9.33339 199.5,9.5 Z"/></g>
<g><path style="opacity:1" fill="#39b4e5" d="M 199.5,10.5 C 199.5,30.5 199.5,50.5 199.5,70.5C 182.991,70.1702 166.658,70.5036 150.5,71.5C 121.142,77.1919 102.809,94.5253 95.5,123.5C 94.6981,124.952 94.1981,126.618 94,128.5C 93.5001,140.829 93.3335,153.162 93.5,165.5C 73.5,165.5 53.5,165.5 33.5,165.5C 33.1667,165.5 32.8333,165.5 32.5,165.5C 31.896,147.085 32.7293,128.752 35,110.5C 46.6485,63.5212 75.1485,31.6879 120.5,15C 126.084,13.3534 131.751,12.1867 137.5,11.5C 158.151,10.5991 178.817,10.2657 199.5,10.5 Z"/></g>
<g><path style="opacity:1" fill="#096da3" d="M 199.5,9.5 C 218.17,9.33339 236.836,9.50005 255.5,10C 257.378,11.5429 258.878,13.3762 260,15.5C 260.667,48.1667 260.667,80.8333 260,113.5C 253.164,163.993 226.331,199.16 179.5,219C 167.573,223.566 155.24,226.066 142.5,226.5C 126.5,226.5 110.5,226.5 94.5,226.5C 94.5,206.167 94.5,185.833 94.5,165.5C 111.868,165.878 129.201,165.378 146.5,164C 176.329,156.199 193.662,137.033 198.5,106.5C 199.495,94.6783 199.828,82.6783 199.5,70.5C 199.5,50.5 199.5,30.5 199.5,10.5C 199.5,10.1667 199.5,9.83333 199.5,9.5 Z"/></g>
<g><path style="opacity:0.463" fill="#9bcadf" d="M 150.5,71.5 C 166.658,70.5036 182.991,70.1702 199.5,70.5C 199.828,82.6783 199.495,94.6783 198.5,106.5C 198.5,94.8333 198.5,83.1667 198.5,71.5C 182.5,71.5 166.5,71.5 150.5,71.5 Z"/></g>
<g><path style="opacity:1" fill="#006db4" d="M 8.5,166.5 C 16.5,166.5 24.5,166.5 32.5,166.5C 32.5,186.5 32.5,206.5 32.5,226.5C 24.5,226.5 16.5,226.5 8.5,226.5C 8.5,206.5 8.5,186.5 8.5,166.5 Z"/></g>
<g><path style="opacity:0.647" fill="#539ccc" d="M 8.5,166.5 C 16.3159,165.508 24.3159,165.174 32.5,165.5C 32.8333,165.5 33.1667,165.5 33.5,165.5C 33.5,165.833 33.5,166.167 33.5,166.5C 33.5,186.5 33.5,206.5 33.5,226.5C 33.1667,226.5 32.8333,226.5 32.5,226.5C 32.5,206.5 32.5,186.5 32.5,166.5C 24.5,166.5 16.5,166.5 8.5,166.5 Z"/></g>
<g><path style="opacity:0.435" fill="#9ed1e7" d="M 95.5,123.5 C 94.6118,137.478 94.2784,151.478 94.5,165.5C 94.5,185.833 94.5,206.167 94.5,226.5C 110.5,226.5 126.5,226.5 142.5,226.5C 126.675,227.496 110.675,227.83 94.5,227.5C 94.5,247.5 94.5,267.5 94.5,287.5C 94.1667,287.5 93.8333,287.5 93.5,287.5C 93.5,267.167 93.5,246.833 93.5,226.5C 93.5,206.5 93.5,186.5 93.5,166.5C 73.5,166.5 53.5,166.5 33.5,166.5C 33.5,166.167 33.5,165.833 33.5,165.5C 53.5,165.5 73.5,165.5 93.5,165.5C 93.3335,153.162 93.5001,140.829 94,128.5C 94.1981,126.618 94.6981,124.952 95.5,123.5 Z"/></g>
<g><path style="opacity:1" fill="#36b4e5" d="M 33.5,226.5 C 53.5,226.5 73.5,226.5 93.5,226.5C 93.5,246.833 93.5,267.167 93.5,287.5C 73.5,287.5 53.5,287.5 33.5,287.5C 33.5,267.167 33.5,246.833 33.5,226.5 Z"/></g>
<g><path style="opacity:0.416" fill="#bce4f5" d="M 8.5,226.5 C 16.5,226.5 24.5,226.5 32.5,226.5C 32.8333,226.5 33.1667,226.5 33.5,226.5C 33.5,246.833 33.5,267.167 33.5,287.5C 53.5,287.5 73.5,287.5 93.5,287.5C 93.8333,287.5 94.1667,287.5 94.5,287.5C 74.0067,288.497 53.3401,288.831 32.5,288.5C 32.5,268.167 32.5,247.833 32.5,227.5C 24.3159,227.826 16.3159,227.492 8.5,226.5 Z"/></g>
</svg>
